<?xml version="1.0" encoding="utf-8"?>
<!-- Generator: Adobe Illustrator 21.1.0, SVG Export Plug-In . SVG Version: 6.00 Build 0)  -->
<svg version="1.1" id="Слой_1" xmlns="http://www.w3.org/2000/svg" xmlns:xlink="http://www.w3.org/1999/xlink" x="0px" y="0px"
	 viewBox="0 0 86 52" style="enable-background:new 0 0 86 52;" xml:space="preserve">
<style type="text/css">
	.st0{display:none;}
	.st1{display:inline;}
	.st2{fill:#4C70B3;}
	.st3{display:inline;fill:#E59D4D;}
	.st4{fill-rule:evenodd;clip-rule:evenodd;fill:#FDB12F;}
	.st5{fill-rule:evenodd;clip-rule:evenodd;fill:#ED1A2E;}
	.st6{fill-rule:evenodd;clip-rule:evenodd;fill:#FFFFFF;}
	.st7{fill:none;stroke:#FFFFFF;stroke-width:0.216;stroke-miterlimit:2.6131;}
</style>
<g class="st0">
	<g class="st1">
		<polygon class="st2" points="37.4,39.2 30.6,39.2 34.8,12.8 41.7,12.8 		"/>
		<path class="st2" d="M24.8,12.8L18.3,31l-0.8-3.9l0,0l-2.3-11.8c0,0-0.3-2.4-3.3-2.4H1.1L1,13.3c0,0,3.3,0.7,7.2,3l6,22.9h7.1
			l10.9-26.3H24.8z"/>
		<path class="st2" d="M78.7,39.2H85l-5.5-26.3H74c-2.5,0-3.2,2-3.2,2L60.6,39.2h7.1l1.4-3.9h8.7L78.7,39.2z M71.2,29.9l3.6-9.9
			l2,9.9H71.2z"/>
		<path class="st2" d="M61.2,19.2l1-5.7c0,0-3-1.1-6.2-1.1c-3.4,0-11.5,1.5-11.5,8.7c0,6.8,9.5,6.9,9.5,10.5s-8.5,2.9-11.3,0.7
			l-1,5.9c0,0,3.1,1.5,7.7,1.5c4.7,0,11.7-2.4,11.7-9c0-6.8-9.6-7.5-9.6-10.5C51.5,17.2,58.2,17.6,61.2,19.2z"/>
	</g>
	<path class="st3" d="M17.5,27.1l-2.3-11.8c0,0-0.3-2.4-3.3-2.4H1.1L1,13.3c0,0,5.2,1.1,10.2,5.1C15.9,22.3,17.5,27.1,17.5,27.1z"/>
</g>
<polygon class="st4" points="58.9,49.7 60.1,49.7 61.3,49.6 62.5,49.4 63.7,49.2 64.8,49 65.9,48.7 67,48.3 68.1,47.9 69.2,47.4 
	70.2,46.9 71.2,46.3 72.2,45.7 73.1,45 74,44.3 74.8,43.5 75.7,42.8 76.5,41.9 77.2,41.1 77.9,40.2 78.6,39.2 79.2,38.3 79.8,37.3 
	80.3,36.3 80.8,35.2 81.2,34.1 81.6,33 81.9,31.9 82.1,30.7 82.4,29.6 82.5,28.4 82.6,27.2 82.6,26 82.6,24.7 82.5,23.5 82.4,22.4 
	82.1,21.2 81.9,20.1 81.6,18.9 81.2,17.8 80.8,16.8 80.3,15.7 79.8,14.7 79.2,13.7 78.6,12.7 77.9,11.8 77.2,10.9 76.5,10.1 
	75.7,9.2 74.8,8.4 74,7.7 73.1,7 72.2,6.3 71.2,5.7 70.2,5.1 69.2,4.6 68.1,4.1 67,3.7 65.9,3.3 64.8,3 63.7,2.8 62.5,2.6 61.3,2.4 
	60.1,2.3 58.9,2.3 57.6,2.3 56.4,2.4 55.3,2.6 54.1,2.8 52.9,3 51.8,3.3 50.7,3.7 49.6,4.1 48.6,4.6 47.6,5.1 46.6,5.7 45.6,6.3 
	44.7,7 43.8,7.7 42.9,8.4 42.1,9.2 41.3,10.1 40.6,10.9 39.9,11.8 39.2,12.7 38.6,13.7 38,14.7 37.5,15.7 37,16.8 36.6,17.8 
	36.3,18.9 35.9,20.1 35.7,21.2 35.5,22.4 35.3,23.5 35.2,24.7 35.2,26 35.2,27.2 35.3,28.4 35.5,29.6 35.7,30.7 35.9,31.9 36.3,33 
	36.6,34.1 37,35.2 37.5,36.3 38,37.3 38.6,38.3 39.2,39.2 39.9,40.2 40.6,41.1 41.3,41.9 42.1,42.8 42.9,43.5 43.8,44.3 44.7,45 
	45.6,45.7 46.6,46.3 47.6,46.9 48.6,47.4 49.6,47.9 50.7,48.3 51.8,48.7 52.9,49 54.1,49.2 55.3,49.4 56.4,49.6 57.6,49.7 
	58.9,49.7 58.9,49.7 "/>
<polygon class="st5" points="27.1,49.7 28.4,49.7 29.6,49.6 30.7,49.4 31.9,49.2 33.1,49 34.2,48.7 35.3,48.3 36.4,47.9 37.4,47.4 
	38.4,46.9 39.4,46.3 40.4,45.7 41.3,45 42.2,44.3 43.1,43.5 43.9,42.8 44.7,41.9 45.4,41.1 46.1,40.2 46.8,39.2 47.4,38.3 48,37.3 
	48.5,36.3 49,35.2 49.4,34.1 49.7,33 50.1,31.9 50.3,30.7 50.5,29.6 50.7,28.4 50.8,27.2 50.8,26 50.8,24.7 50.7,23.5 50.5,22.4 
	50.3,21.2 50.1,20.1 49.7,18.9 49.4,17.8 49,16.8 48.5,15.7 48,14.7 47.4,13.7 46.8,12.7 46.1,11.8 45.4,10.9 44.7,10.1 43.9,9.2 
	43.1,8.4 42.2,7.7 41.3,7 40.4,6.3 39.4,5.7 38.4,5.1 37.4,4.6 36.4,4.1 35.3,3.7 34.2,3.3 33.1,3 31.9,2.8 30.7,2.6 29.6,2.4 
	28.4,2.3 27.1,2.3 25.9,2.3 24.7,2.4 23.5,2.6 22.3,2.8 21.2,3 20.1,3.3 19,3.7 17.9,4.1 16.8,4.6 15.8,5.1 14.8,5.7 13.8,6.3 
	12.9,7 12,7.7 11.2,8.4 10.3,9.2 9.5,10.1 8.8,10.9 8.1,11.8 7.4,12.7 6.8,13.7 6.2,14.7 5.7,15.7 5.2,16.8 4.8,17.8 4.4,18.9 
	4.1,20.1 3.9,21.2 3.6,22.4 3.5,23.5 3.4,24.7 3.4,26 3.4,27.2 3.5,28.4 3.6,29.6 3.9,30.7 4.1,31.9 4.4,33 4.8,34.1 5.2,35.2 
	5.7,36.3 6.2,37.3 6.8,38.3 7.4,39.2 8.1,40.2 8.8,41.1 9.5,41.9 10.3,42.8 11.2,43.5 12,44.3 12.9,45 13.8,45.7 14.8,46.3 
	15.8,46.9 16.8,47.4 17.9,47.9 19,48.3 20.1,48.7 21.2,49 22.3,49.2 23.5,49.4 24.7,49.6 25.9,49.7 27.1,49.7 27.1,49.7 "/>
<polygon class="st4" points="40.2,11.4 52.8,11.4 52.8,10.1 41.3,10.1 40.2,11.4 40.2,11.4 "/>
<polygon class="st4" points="38.3,14.2 52.8,14.2 52.8,13 39.1,13 38.3,14.2 38.3,14.2 "/>
<polygon class="st4" points="36.9,17.1 52.8,17.1 52.8,15.8 37.5,15.8 36.9,17.1 36.9,17.1 "/>
<polygon class="st4" points="36,20 52.8,20 52.8,18.7 36.4,18.7 36,20 36,20 "/>
<polygon class="st4" points="36.5,33.8 52.9,33.8 52.9,32.5 36.1,32.5 36.5,33.8 36.5,33.8 "/>
<polygon class="st4" points="37.7,36.7 52.9,36.7 52.9,35.4 37.1,35.4 37.7,36.7 37.7,36.7 "/>
<polygon class="st4" points="39.4,39.5 52.9,39.5 52.9,38.2 38.6,38.2 39.4,39.5 39.4,39.5 "/>
<polygon class="st4" points="41.8,42.4 52.9,42.4 52.9,41.1 40.6,41.1 41.8,42.4 41.8,42.4 "/>
<polygon class="st4" points="35.4,22.8 52.8,22.8 52.8,21.5 35.6,21.5 35.4,22.8 35.4,22.8 "/>
<polygon class="st4" points="46,30.9 52.7,30.9 52.7,29.7 46.3,29.7 46,30.9 46,30.9 "/>
<polygon class="st4" points="46.5,28.1 52.7,28.1 52.7,26.8 46.8,26.8 46.5,28.1 46.5,28.1 "/>
<polygon class="st4" points="35,26.8 36.7,26.8 36.7,28.1 35,28.1 35,26.8 35,26.8 "/>
<polygon class="st6" points="31.7,25.2 31.6,25.2 31.5,25.2 31.4,25.2 31.3,25.2 31.2,25.2 31.1,25.1 31,25.1 30.9,25.1 30.8,25.1 
	30.6,25.1 30.5,25.1 30.3,25.1 30.2,25.1 30,25.1 29.8,25.1 29.6,25.1 29.4,25.1 29.2,25.2 29.1,25.2 29,25.3 28.9,25.3 28.8,25.4 
	28.7,25.5 28.6,25.5 28.6,25.6 28.5,25.7 28.5,25.8 28.5,25.9 28.5,26 28.6,26.1 28.6,26.2 28.7,26.3 28.9,26.5 29.1,26.6 
	29.3,26.7 29.5,26.8 29.8,26.9 30,26.9 30.3,27 30.6,27.1 30.8,27.3 31,27.5 31.2,27.7 31.4,27.9 31.5,28.2 31.6,28.6 31.6,29 
	31.6,29.5 31.6,29.9 31.5,30.2 31.3,30.5 31.2,30.8 31,31 30.8,31.2 30.6,31.4 30.3,31.5 30,31.7 29.8,31.8 29.5,31.8 29.2,31.9 
	29,31.9 28.7,32 28.4,32 28.2,32 27.8,32 27.5,32 27.2,32 27,32 26.7,32 26.5,32 26.3,31.9 26.1,31.9 26,31.9 25.8,31.9 25.7,31.8 
	25.5,31.8 25.4,31.8 25.3,31.7 25.1,31.7 25,31.6 25.4,29.9 25.4,29.9 25.5,29.9 25.6,29.9 25.8,30 25.9,30 26.1,30 26.3,30.1 
	26.4,30.1 26.6,30.1 26.9,30.2 27.1,30.2 27.3,30.2 27.5,30.2 27.8,30.2 28,30.2 28.2,30.2 28.5,30.2 28.6,30.1 28.8,30 28.9,29.9 
	29,29.8 29,29.7 29.1,29.5 29.1,29.4 29.1,29.2 29.1,29 28.9,28.8 28.7,28.7 28.5,28.6 28.2,28.5 27.9,28.3 27.6,28.2 27.3,28.1 
	27,27.9 26.7,27.7 26.4,27.4 26.2,27.1 26.1,26.8 26,26.3 26,25.8 26,25.5 26.1,25.2 26.2,25 26.3,24.7 26.4,24.5 26.6,24.3 
	26.7,24.1 26.9,23.9 27.2,23.7 27.4,23.6 27.7,23.5 28,23.4 28.4,23.3 28.8,23.3 29.2,23.2 29.7,23.2 30,23.2 30.2,23.2 30.5,23.2 
	30.7,23.2 30.9,23.3 31.1,23.3 31.3,23.3 31.4,23.3 31.5,23.3 31.6,23.3 31.8,23.4 31.8,23.4 31.9,23.4 32,23.4 32.1,23.4 
	32.1,23.4 31.7,25.2 31.7,25.2 "/>
<polyline class="st7" points="31.7,25.2 31.7,25.2 31.6,25.2 31.5,25.2 31.4,25.2 31.3,25.2 31.2,25.2 31.1,25.1 31,25.1 30.9,25.1 
	30.8,25.1 30.6,25.1 30.5,25.1 30.3,25.1 30.2,25.1 30,25.1 29.8,25.1 29.6,25.1 29.6,25.1 29.4,25.1 29.2,25.2 29.1,25.2 29,25.3 
	28.9,25.3 28.8,25.4 28.7,25.5 28.6,25.5 28.6,25.6 28.5,25.7 28.5,25.8 28.5,25.9 28.5,26 28.6,26.1 28.6,26.2 28.7,26.3 
	28.7,26.3 28.9,26.5 29.1,26.6 29.3,26.7 29.5,26.8 29.8,26.9 30,26.9 30.3,27 30.6,27.1 30.8,27.3 31,27.5 31.2,27.7 31.4,27.9 
	31.5,28.2 31.6,28.6 31.6,29 31.6,29.5 31.6,29.5 31.6,29.9 31.5,30.2 31.3,30.5 31.2,30.8 31,31 30.8,31.2 30.6,31.4 30.3,31.5 
	30,31.7 29.8,31.8 29.5,31.8 29.2,31.9 29,31.9 28.7,32 28.4,32 28.2,32 28.2,32 27.8,32 27.5,32 27.2,32 27,32 26.7,32 26.5,32 
	26.3,31.9 26.1,31.9 26,31.9 25.8,31.9 25.7,31.8 25.5,31.8 25.4,31.8 25.3,31.7 25.1,31.7 25,31.6 25.4,29.9 25.4,29.9 25.4,29.9 
	25.5,29.9 25.6,29.9 25.8,30 25.9,30 26.1,30 26.3,30.1 26.4,30.1 26.6,30.1 26.9,30.2 27.1,30.2 27.3,30.2 27.5,30.2 27.8,30.2 
	28,30.2 28.2,30.2 28.2,30.2 28.5,30.2 28.6,30.1 28.8,30 28.9,29.9 29,29.8 29,29.7 29.1,29.5 29.1,29.4 29.1,29.4 29.1,29.2 
	29.1,29 28.9,28.8 28.7,28.7 28.5,28.6 28.2,28.5 27.9,28.3 27.6,28.2 27.3,28.1 27,27.9 26.7,27.7 26.4,27.4 26.2,27.1 26.1,26.8 
	26,26.3 26,25.8 26,25.8 26,25.5 26.1,25.2 26.2,25 26.3,24.7 26.4,24.5 26.6,24.3 26.7,24.1 26.9,23.9 27.2,23.7 27.4,23.6 
	27.7,23.5 28,23.4 28.4,23.3 28.8,23.3 29.2,23.2 29.7,23.2 29.7,23.2 30,23.2 30.2,23.2 30.5,23.2 30.7,23.2 30.9,23.3 31.1,23.3 
	31.3,23.3 31.4,23.3 31.5,23.3 31.6,23.3 31.8,23.4 31.8,23.4 31.9,23.4 32,23.4 32.1,23.4 32.1,23.4 31.7,25.2 "/>
<polygon class="st6" points="33.6,21.5 35.8,21.5 35.5,23.4 36.8,23.4 36.6,25.2 35.2,25.2 34.4,29.6 34.4,29.8 34.4,29.9 34.5,30 
	34.6,30.1 34.7,30.2 34.9,30.2 35.1,30.2 35.3,30.3 35.4,30.3 35.6,30.2 35.8,30.2 35.9,30.2 36,30.1 36.1,30.1 36.1,30.1 
	36.1,30.1 35.8,31.6 35.8,31.6 35.7,31.7 35.7,31.7 35.6,31.7 35.6,31.7 35.5,31.8 35.4,31.8 35.4,31.8 35.3,31.8 35.2,31.9 
	35.1,31.9 35,31.9 34.9,31.9 34.8,31.9 34.6,31.9 34.5,32 33.9,32 33.6,31.9 33.3,31.9 33,31.9 32.8,31.8 32.6,31.7 32.5,31.6 
	32.4,31.5 32.3,31.4 32.2,31.3 32.1,31.2 32.1,31.1 32.1,30.9 32,30.7 32,30.6 32.1,30.4 32.1,30.2 33.6,21.5 33.6,21.5 "/>
<polyline class="st7" points="33.6,21.5 35.8,21.5 35.5,23.4 36.8,23.4 36.6,25.2 35.2,25.2 34.4,29.6 34.4,29.6 34.4,29.8 
	34.4,29.9 34.5,30 34.6,30.1 34.7,30.2 34.9,30.2 35.1,30.2 35.3,30.3 35.3,30.3 35.4,30.3 35.6,30.2 35.8,30.2 35.9,30.2 36,30.1 
	36.1,30.1 36.1,30.1 36.1,30.1 35.8,31.6 35.8,31.6 35.8,31.6 35.7,31.7 35.7,31.7 35.6,31.7 35.6,31.7 35.5,31.8 35.4,31.8 
	35.4,31.8 35.3,31.8 35.2,31.9 35.1,31.9 35,31.9 34.9,31.9 34.8,31.9 34.6,31.9 34.5,32 33.9,32 33.9,32 33.6,31.9 33.3,31.9 
	33,31.9 32.8,31.8 32.6,31.7 32.5,31.6 32.4,31.5 32.3,31.4 32.2,31.3 32.1,31.2 32.1,31.1 32.1,30.9 32,30.7 32,30.6 32.1,30.4 
	32.1,30.2 33.6,21.5 "/>
<polygon class="st6" points="38.6,28.2 38.6,28.3 38.6,28.5 38.6,28.6 38.6,28.8 38.7,28.9 38.8,29.1 38.8,29.2 38.9,29.4 39,29.5 
	39.2,29.6 39.3,29.8 39.4,29.9 39.6,29.9 39.7,30 39.9,30.1 40.1,30.1 40.3,30.1 40.5,30.2 40.7,30.2 40.9,30.2 41.1,30.2 
	41.3,30.2 41.5,30.2 41.7,30.2 42,30.1 42.2,30.1 42.4,30.1 42.6,30 42.8,29.9 43.1,29.8 43.3,29.7 43.5,29.5 43.2,31.5 43.1,31.6 
	42.9,31.6 42.8,31.7 42.7,31.7 42.6,31.8 42.4,31.8 42.3,31.8 42.2,31.9 42,31.9 41.9,31.9 41.7,31.9 41.5,31.9 41.3,31.9 
	41.1,31.9 40.9,32 40.6,32 40.2,31.9 39.8,31.9 39.4,31.9 39,31.8 38.6,31.6 38.2,31.5 37.9,31.3 37.5,31.1 37.2,30.8 37,30.5 
	36.7,30.1 36.5,29.7 36.4,29.2 36.3,28.7 36.3,28.1 36.3,27.4 36.4,27.1 36.4,26.9 36.5,26.5 36.6,26.2 36.7,25.9 36.8,25.5 
	37,25.2 37.2,24.8 37.5,24.5 37.8,24.2 38.1,23.9 38.5,23.7 39,23.5 39.5,23.3 40.1,23.3 40.8,23.2 41.1,23.2 41.4,23.3 41.7,23.3 
	42,23.4 42.4,23.5 42.7,23.7 43,23.9 43.2,24.1 43.5,24.3 43.7,24.7 43.8,25 43.9,25.5 44,25.9 44,26.5 44,27.1 43.8,27.8 
	43.8,28.3 38,28.3 38.3,26.7 41.8,26.7 41.9,26.5 41.8,26.3 41.8,26.1 41.8,25.9 41.7,25.8 41.7,25.7 41.6,25.5 41.5,25.4 
	41.4,25.3 41.3,25.3 41.2,25.2 41.1,25.1 41,25.1 40.8,25 40.7,25 40.6,25 40.4,25 40.3,25 40.1,25.1 40,25.1 39.8,25.2 39.7,25.2 
	39.6,25.3 39.5,25.4 39.4,25.5 39.3,25.7 39.2,25.8 39.1,25.9 39.1,26.1 39,26.2 39,26.4 38.9,26.6 38.6,28.2 38.6,28.2 "/>
<polyline class="st7" points="38.6,28.2 38.6,28.2 38.6,28.3 38.6,28.5 38.6,28.6 38.6,28.8 38.7,28.9 38.8,29.1 38.8,29.2 
	38.9,29.4 39,29.5 39.2,29.6 39.3,29.8 39.4,29.9 39.6,29.9 39.7,30 39.9,30.1 40.1,30.1 40.1,30.1 40.3,30.1 40.5,30.2 40.7,30.2 
	40.9,30.2 41.1,30.2 41.3,30.2 41.5,30.2 41.7,30.2 42,30.1 42.2,30.1 42.4,30.1 42.6,30 42.8,29.9 43.1,29.8 43.3,29.7 43.5,29.5 
	43.2,31.5 43.2,31.5 43.1,31.6 42.9,31.6 42.8,31.7 42.7,31.7 42.6,31.8 42.4,31.8 42.3,31.8 42.2,31.9 42,31.9 41.9,31.9 
	41.7,31.9 41.5,31.9 41.3,31.9 41.1,31.9 40.9,32 40.6,32 40.6,32 40.2,31.9 39.8,31.9 39.4,31.9 39,31.8 38.6,31.6 38.2,31.5 
	37.9,31.3 37.5,31.1 37.2,30.8 37,30.5 36.7,30.1 36.5,29.7 36.4,29.2 36.3,28.7 36.3,28.1 36.3,27.4 36.3,27.4 36.4,27.1 
	36.4,26.9 36.5,26.5 36.6,26.2 36.7,25.9 36.8,25.5 37,25.2 37.2,24.8 37.5,24.5 37.8,24.2 38.1,23.9 38.5,23.7 39,23.5 39.5,23.3 
	40.1,23.3 40.8,23.2 40.8,23.2 41.1,23.2 41.4,23.3 41.7,23.3 42,23.4 42.4,23.5 42.7,23.7 43,23.9 43.2,24.1 43.5,24.3 43.7,24.7 
	43.8,25 43.9,25.5 44,25.9 44,26.5 44,27.1 43.8,27.8 43.8,28.3 38,28.3 38.3,26.7 41.8,26.7 41.8,26.7 41.9,26.5 41.8,26.3 
	41.8,26.1 41.8,25.9 41.7,25.8 41.7,25.7 41.6,25.5 41.5,25.4 41.4,25.3 41.3,25.3 41.2,25.2 41.1,25.1 41,25.1 40.8,25 40.7,25 
	40.6,25 40.6,25 40.4,25 40.3,25 40.1,25.1 40,25.1 39.8,25.2 39.7,25.2 39.6,25.3 39.5,25.4 39.4,25.5 39.3,25.7 39.2,25.8 
	39.1,25.9 39.1,26.1 39,26.2 39,26.4 38.9,26.6 38.6,28.2 "/>
<polygon class="st6" points="57.7,23.9 57.6,23.8 57.5,23.8 57.4,23.7 57.3,23.7 57.1,23.6 57,23.6 56.9,23.5 56.7,23.5 56.6,23.4 
	56.4,23.4 56.2,23.4 56.1,23.3 55.9,23.3 55.7,23.3 55.5,23.3 55.3,23.3 55.1,23.3 54.9,23.3 54.7,23.3 54.5,23.4 54.2,23.4 
	54,23.5 53.8,23.6 53.6,23.8 53.4,24 53.2,24.2 53,24.4 52.8,24.7 52.6,25.1 52.4,25.5 52.3,25.9 52.1,26.4 52.1,26.7 52.1,27 
	52,27.3 52,27.6 52.1,27.8 52.1,28.1 52.2,28.3 52.3,28.6 52.4,28.8 52.6,29 52.7,29.2 52.9,29.3 53.1,29.5 53.4,29.6 53.6,29.7 
	54,29.8 54.1,29.8 54.2,29.8 54.3,29.8 54.5,29.9 54.7,29.9 54.8,29.9 55,29.9 55.2,29.9 55.4,29.8 55.7,29.8 55.9,29.7 56.1,29.7 
	56.3,29.6 56.4,29.5 56.6,29.4 56.8,29.2 56.4,31.3 56.4,31.4 56.3,31.4 56.2,31.5 56.2,31.5 56.1,31.6 56,31.7 55.8,31.7 
	55.7,31.8 55.5,31.8 55.3,31.9 55.1,31.9 54.8,31.9 54.5,31.9 54.1,31.9 53.7,31.9 53.3,31.9 52.9,31.9 52.5,31.8 52.2,31.7 
	51.8,31.5 51.4,31.3 51.1,31.1 50.8,30.8 50.5,30.5 50.2,30.1 50,29.7 49.8,29.3 49.7,28.8 49.6,28.3 49.5,27.7 49.6,27.1 
	49.6,26.4 49.7,26.1 49.8,25.7 49.9,25.4 49.9,25.1 50,24.9 50.1,24.6 50.2,24.3 50.3,24.1 50.5,23.8 50.6,23.6 50.7,23.4 
	50.9,23.2 51,23 51.2,22.8 51.3,22.6 51.5,22.4 51.7,22.3 51.9,22.1 52.1,22 52.3,21.8 52.5,21.7 52.7,21.6 52.9,21.5 53.1,21.4 
	53.4,21.4 53.6,21.3 53.9,21.2 54.2,21.2 54.4,21.1 54.7,21.1 55,21.1 55.3,21.1 55.6,21.1 55.8,21.1 56.1,21.1 56.3,21.2 
	56.5,21.2 56.7,21.3 57,21.3 57.1,21.3 57.3,21.4 57.5,21.4 57.6,21.5 57.8,21.5 57.9,21.6 58,21.6 58,21.6 58.1,21.7 57.7,23.9 
	57.7,23.9 "/>
<polyline class="st7" points="57.7,23.9 57.7,23.9 57.6,23.8 57.5,23.8 57.4,23.7 57.3,23.7 57.1,23.6 57,23.6 56.9,23.5 56.7,23.5 
	56.6,23.4 56.4,23.4 56.2,23.4 56.1,23.3 55.9,23.3 55.7,23.3 55.5,23.3 55.3,23.3 55.3,23.3 55.1,23.3 54.9,23.3 54.7,23.3 
	54.5,23.4 54.2,23.4 54,23.5 53.8,23.6 53.6,23.8 53.4,24 53.2,24.2 53,24.4 52.8,24.7 52.6,25.1 52.4,25.5 52.3,25.9 52.1,26.4 
	52.1,26.4 52.1,26.7 52.1,27 52,27.3 52,27.6 52.1,27.8 52.1,28.1 52.2,28.3 52.3,28.6 52.4,28.8 52.6,29 52.7,29.2 52.9,29.3 
	53.1,29.5 53.4,29.6 53.6,29.7 54,29.8 54,29.8 54.1,29.8 54.2,29.8 54.3,29.8 54.5,29.9 54.7,29.9 54.8,29.9 55,29.9 55.2,29.9 
	55.4,29.8 55.7,29.8 55.9,29.7 56.1,29.7 56.3,29.6 56.4,29.5 56.6,29.4 56.8,29.2 56.4,31.3 56.4,31.3 56.4,31.4 56.3,31.4 
	56.2,31.5 56.2,31.5 56.1,31.6 56,31.7 55.8,31.7 55.7,31.8 55.5,31.8 55.3,31.9 55.1,31.9 54.8,31.9 54.5,31.9 54.1,31.9 
	53.7,31.9 53.3,31.9 53.3,31.9 52.9,31.9 52.5,31.8 52.2,31.7 51.8,31.5 51.4,31.3 51.1,31.1 50.8,30.8 50.5,30.5 50.2,30.1 
	50,29.7 49.8,29.3 49.7,28.8 49.6,28.3 49.5,27.7 49.6,27.1 49.6,26.4 49.6,26.4 49.7,26.1 49.8,25.7 49.9,25.4 49.9,25.1 50,24.9 
	50.1,24.6 50.2,24.3 50.3,24.1 50.5,23.8 50.6,23.6 50.7,23.4 50.9,23.2 51,23 51.2,22.8 51.3,22.6 51.5,22.4 51.7,22.3 51.9,22.1 
	52.1,22 52.3,21.8 52.5,21.7 52.7,21.6 52.9,21.5 53.1,21.4 53.4,21.4 53.6,21.3 53.9,21.2 54.2,21.2 54.4,21.1 54.7,21.1 55,21.1 
	55.3,21.1 55.3,21.1 55.6,21.1 55.8,21.1 56.1,21.1 56.3,21.2 56.5,21.2 56.7,21.3 57,21.3 57.1,21.3 57.3,21.4 57.5,21.4 
	57.6,21.5 57.8,21.5 57.9,21.6 58,21.6 58,21.6 58.1,21.7 57.7,23.9 "/>
<polygon class="st6" points="77.4,32 75.2,32 75.3,31.1 75.3,31 75.2,31.1 75.1,31.3 74.9,31.4 74.8,31.5 74.6,31.6 74.5,31.7 
	74.4,31.8 74.2,31.9 74.1,31.9 73.9,32 73.8,32 73.6,32 73.4,32.1 73.3,32.1 73.1,32.1 73,32.1 72.5,32 72.2,32 71.8,31.8 
	71.5,31.6 71.2,31.4 70.9,31.1 70.7,30.8 70.5,30.5 70.4,30.1 70.2,29.8 70.2,29.4 70.1,29 70.1,28.6 70.1,28.1 70.1,27.7 
	70.2,27.3 70.3,26.9 70.4,26.4 70.6,26 70.8,25.6 71,25.3 71.3,24.9 71.5,24.6 71.8,24.4 72.1,24.1 72.4,23.9 72.7,23.8 73,23.6 
	73.3,23.5 73.6,23.5 73.9,23.4 74.2,23.4 74.5,23.4 74.7,23.4 74.9,23.5 75.1,23.5 75.3,23.6 75.4,23.7 75.6,23.7 75.8,23.8 
	75.9,23.9 76,24 76.1,24.1 76.2,24.2 76.3,24.3 76.4,24.4 76.4,24.5 76.5,24.6 76.5,24.6 77,21.5 79.2,21.5 77.4,32 77.4,32 "/>
<polyline class="st7" points="77.4,32 75.2,32 75.3,31.1 75.3,31 75.3,31 75.2,31.1 75.1,31.3 74.9,31.4 74.8,31.5 74.6,31.6 
	74.5,31.7 74.4,31.8 74.2,31.9 74.1,31.9 73.9,32 73.8,32 73.6,32 73.4,32.1 73.3,32.1 73.1,32.1 73,32.1 73,32.1 72.5,32 72.2,32 
	71.8,31.8 71.5,31.6 71.2,31.4 70.9,31.1 70.7,30.8 70.5,30.5 70.4,30.1 70.2,29.8 70.2,29.4 70.1,29 70.1,28.6 70.1,28.1 
	70.1,27.7 70.2,27.3 70.2,27.3 70.3,26.9 70.4,26.4 70.6,26 70.8,25.6 71,25.3 71.3,24.9 71.5,24.6 71.8,24.4 72.1,24.1 72.4,23.9 
	72.7,23.8 73,23.6 73.3,23.5 73.6,23.5 73.9,23.4 74.2,23.4 74.2,23.4 74.5,23.4 74.7,23.4 74.9,23.5 75.1,23.5 75.3,23.6 
	75.4,23.7 75.6,23.7 75.8,23.8 75.9,23.9 76,24 76.1,24.1 76.2,24.2 76.3,24.3 76.4,24.4 76.4,24.5 76.5,24.6 76.5,24.6 77,21.5 
	79.2,21.5 77.4,32 "/>
<polygon class="st4" points="73.8,30 74,30 74.2,30 74.4,29.9 74.6,29.8 74.7,29.7 74.9,29.6 75.1,29.5 75.2,29.3 75.3,29.2 
	75.4,29 75.5,28.8 75.6,28.6 75.7,28.4 75.8,28.2 75.8,28 75.9,27.8 75.9,27.5 75.9,27.3 75.9,27.1 75.9,26.9 75.9,26.7 75.9,26.5 
	75.8,26.3 75.7,26.1 75.7,25.9 75.6,25.8 75.5,25.6 75.3,25.5 75.2,25.4 75.1,25.4 74.9,25.3 74.7,25.3 74.5,25.3 74.3,25.4 
	74.1,25.4 74,25.5 73.8,25.6 73.6,25.7 73.5,25.9 73.4,26 73.2,26.2 73.1,26.4 73,26.6 72.9,26.8 72.9,27 72.8,27.2 72.7,27.5 
	72.7,27.7 72.6,28 72.7,28.4 72.7,28.8 72.8,29.2 73,29.5 73.2,29.8 73.4,30 73.8,30 73.8,30 "/>
<polygon class="st6" points="24.6,30.2 24.3,32 22.3,32 22.4,31.6 22.4,31.3 22.4,31.1 22.5,31 22.4,31.1 22.2,31.2 22.1,31.4 
	21.9,31.5 21.7,31.6 21.5,31.7 21.3,31.8 21.1,31.9 20.9,31.9 20.6,32 20.4,32 20.2,32.1 19.9,32.1 19.7,32.1 19.5,32.1 19.2,32 
	19,32 18.7,31.9 18.5,31.8 18.3,31.7 18.1,31.5 18,31.4 17.8,31.2 17.7,31.1 17.6,30.9 17.5,30.7 17.5,30.6 17.4,30.4 17.4,30.2 
	17.4,30 17.4,29.8 17.4,29.7 17.4,29.3 17.4,29.1 17.5,28.8 17.6,28.5 17.7,28.2 17.9,28 18,27.8 18.2,27.6 18.4,27.4 18.7,27.2 
	18.9,27.1 19.1,27 19.4,26.8 19.7,26.8 19.9,26.7 20.2,26.6 20.2,26.6 20.3,26.6 20.3,26.6 20.4,26.6 20.5,26.6 20.6,26.6 
	20.7,26.6 20.9,26.6 21,26.5 21.1,26.5 21.3,26.5 21.4,26.5 21.5,26.5 21.7,26.5 21.8,26.5 21.9,26.5 22,26.5 22.2,26.5 22.4,26.5 
	22.6,26.5 22.7,26.5 22.8,26.5 22.9,26.5 23,26.5 23,26.5 23,26.3 23.1,26.1 23.1,26 23,25.8 23,25.7 22.9,25.5 22.7,25.4 
	22.6,25.3 22.4,25.2 22.2,25.2 22,25.2 21.8,25.1 21.6,25.1 21.3,25.1 21.1,25.1 20.8,25.2 20.5,25.2 20.3,25.2 20,25.2 19.8,25.3 
	19.6,25.3 19.4,25.4 19.2,25.4 19,25.4 18.8,25.5 18.7,25.5 18.6,25.6 19.2,23.7 19.4,23.6 19.6,23.5 19.8,23.5 19.9,23.4 
	20.1,23.4 20.3,23.4 20.6,23.3 20.8,23.3 21,23.3 21.2,23.3 21.5,23.3 21.7,23.3 22,23.3 22.2,23.3 22.5,23.3 22.8,23.3 23,23.3 
	23.3,23.4 23.5,23.4 23.8,23.5 24,23.6 24.2,23.7 24.5,23.8 24.7,24 24.9,24.2 25.1,24.3 25.2,24.6 25.4,24.8 25.4,25.1 25.5,25.3 
	25.5,25.6 25.4,26 24.6,30.2 24.6,30.2 "/>
<polyline class="st7" points="24.6,30.2 24.3,32 22.3,32 22.3,32 22.4,31.6 22.4,31.3 22.4,31.1 22.5,31 22.5,31 22.4,31.1 
	22.2,31.2 22.1,31.4 21.9,31.5 21.7,31.6 21.5,31.7 21.3,31.8 21.1,31.9 20.9,31.9 20.6,32 20.4,32 20.2,32.1 19.9,32.1 19.7,32.1 
	19.5,32.1 19.2,32 19.2,32 19,32 18.7,31.9 18.5,31.8 18.3,31.7 18.1,31.5 18,31.4 17.8,31.2 17.7,31.1 17.6,30.9 17.5,30.7 
	17.5,30.6 17.4,30.4 17.4,30.2 17.4,30 17.4,29.8 17.4,29.7 17.4,29.7 17.4,29.3 17.4,29.1 17.5,28.8 17.6,28.5 17.7,28.2 17.9,28 
	18,27.8 18.2,27.6 18.4,27.4 18.7,27.2 18.9,27.1 19.1,27 19.4,26.8 19.7,26.8 19.9,26.7 20.2,26.6 20.2,26.6 20.2,26.6 20.3,26.6 
	20.3,26.6 20.4,26.6 20.5,26.6 20.6,26.6 20.7,26.6 20.9,26.6 21,26.5 21.1,26.5 21.3,26.5 21.4,26.5 21.5,26.5 21.7,26.5 
	21.8,26.5 21.9,26.5 21.9,26.5 22,26.5 22.2,26.5 22.4,26.5 22.6,26.5 22.7,26.5 22.8,26.5 22.9,26.5 23,26.5 23,26.5 23,26.5 
	23,26.3 23.1,26.1 23.1,26 23.1,26 23,25.8 23,25.7 22.9,25.5 22.7,25.4 22.6,25.3 22.4,25.2 22.2,25.2 22,25.2 22,25.2 21.8,25.1 
	21.6,25.1 21.3,25.1 21.1,25.1 20.8,25.2 20.5,25.2 20.3,25.2 20,25.2 19.8,25.3 19.6,25.3 19.4,25.4 19.2,25.4 19,25.4 18.8,25.5 
	18.7,25.5 18.6,25.6 19.2,23.7 19.2,23.7 19.4,23.6 19.6,23.5 19.8,23.5 19.9,23.4 20.1,23.4 20.3,23.4 20.6,23.3 20.8,23.3 
	21,23.3 21.2,23.3 21.5,23.3 21.7,23.3 22,23.3 22.2,23.3 22.5,23.3 22.8,23.3 22.8,23.3 23,23.3 23.3,23.4 23.5,23.4 23.8,23.5 
	24,23.6 24.2,23.7 24.5,23.8 24.7,24 24.9,24.2 25.1,24.3 25.2,24.6 25.4,24.8 25.4,25.1 25.5,25.3 25.5,25.6 25.4,26 24.6,30.2 "/>
<polygon class="st5" points="22.7,28.1 22.7,28.1 22.7,28 22.6,28 22.5,28 22.5,28 22.4,27.9 22.2,27.9 22.1,27.9 22,28 21.8,28 
	21.7,28 21.6,28 21.5,28 21.4,28 21.3,28.1 21.2,28.1 21.1,28.1 21.1,28.1 21,28.2 20.9,28.2 20.8,28.3 20.7,28.3 20.6,28.4 
	20.5,28.4 20.3,28.5 20.2,28.6 20.1,28.7 20.1,28.8 20,28.9 19.9,29 19.9,29.1 19.8,29.3 19.8,29.5 19.9,29.7 20,29.9 20.1,30 
	20.2,30.1 20.3,30.1 20.4,30.2 20.6,30.2 20.8,30.2 21,30.1 21.2,30.1 21.4,30.1 21.6,30 21.7,29.9 21.9,29.9 22,29.8 22.1,29.7 
	22.2,29.6 22.3,29.5 22.3,29.4 22.4,29.3 22.4,29.2 22.5,29.1 22.5,29.1 22.6,28.8 22.6,28.6 22.7,28.3 22.7,28.1 22.7,28.1 "/>
<polygon class="st6" points="7.8,32 5.6,32 7.4,21.5 11.2,21.5 11.6,27.7 14.2,21.5 18.2,21.5 16.3,32 14.1,32 15.5,24.1 15.4,24.1 
	12.2,32 9.7,32 9.7,31.6 9.6,30.8 9.6,29.5 9.5,28.1 9.4,26.7 9.3,25.4 9.3,24.5 9.3,24.1 9.2,24.1 9.2,24.1 9.1,24.1 9.1,24.1 
	7.8,32 7.8,32 "/>
<polyline class="st7" points="7.8,32 5.6,32 7.4,21.5 11.2,21.5 11.6,27.7 14.2,21.5 18.2,21.5 16.3,32 14.1,32 15.5,24.1 
	15.4,24.1 12.2,32 9.7,32 9.7,32 9.7,31.6 9.6,30.8 9.6,29.5 9.5,28.1 9.4,26.7 9.3,25.4 9.3,24.5 9.3,24.1 9.3,24.1 9.2,24.1 
	9.2,24.1 9.1,24.1 9.1,24.1 7.8,32 "/>
<polygon class="st6" points="64.3,30.2 64,32 62,32 62,31.6 62,31.3 62,31.1 62,31 61.9,31.1 61.8,31.3 61.7,31.4 61.5,31.5 
	61.4,31.6 61.2,31.7 61,31.8 60.8,31.9 60.5,31.9 60.3,32 60.1,32 59.9,32.1 59.6,32.1 59.4,32.1 59.2,32.1 59,32 58.7,32 
	58.4,31.9 58.2,31.8 58,31.7 57.8,31.5 57.7,31.4 57.6,31.2 57.4,31.1 57.3,30.9 57.3,30.7 57.2,30.6 57.2,30.4 57.1,30.2 57.1,30 
	57.1,29.8 57.1,29.7 57.1,29.3 57.2,29.1 57.2,28.8 57.3,28.5 57.5,28.2 57.6,28 57.8,27.8 58,27.6 58.2,27.4 58.4,27.2 58.6,27.1 
	58.9,27 59.1,26.8 59.4,26.8 59.6,26.7 59.9,26.6 59.9,26.6 60,26.6 60,26.6 60.1,26.6 60.2,26.6 60.3,26.6 60.4,26.6 60.6,26.6 
	60.7,26.5 60.8,26.5 61,26.5 61.1,26.5 61.2,26.5 61.4,26.5 61.5,26.5 61.6,26.5 61.8,26.5 61.9,26.5 62.1,26.5 62.3,26.5 
	62.5,26.5 62.6,26.5 62.7,26.5 62.7,26.5 62.7,26.5 62.7,26.3 62.8,26.1 62.8,26 62.7,25.8 62.7,25.7 62.6,25.5 62.4,25.4 
	62.3,25.3 62.1,25.2 62,25.2 61.8,25.2 61.5,25.1 61.3,25.1 61.1,25.1 60.8,25.1 60.5,25.2 60.3,25.2 60,25.2 59.8,25.2 59.5,25.3 
	59.3,25.3 59.1,25.4 58.9,25.4 58.7,25.4 58.6,25.5 58.5,25.5 58.4,25.6 58.9,23.7 59.1,23.6 59.3,23.5 59.5,23.5 59.7,23.4 
	59.9,23.4 60.1,23.4 60.3,23.3 60.5,23.3 60.7,23.3 61,23.3 61.2,23.3 61.4,23.3 61.7,23.3 61.9,23.3 62.2,23.3 62.5,23.3 
	62.7,23.3 63,23.4 63.2,23.4 63.5,23.5 63.7,23.6 64,23.7 64.2,23.8 64.4,24 64.6,24.2 64.8,24.3 65,24.6 65.1,24.8 65.2,25.1 
	65.2,25.3 65.2,25.6 65.2,26 64.3,30.2 64.3,30.2 "/>
<polygon class="st6" points="64,32 64.1,32 64.4,30.2 64.3,30.2 64,31.9 64,31.9 64,32 64.1,32 64.1,32 64,32 64,32 "/>
<polygon class="st6" points="62,32 62,32 64,32 64,31.9 62,31.9 62.1,32 62,32 62,32 62,32 62,32 62,32 "/>
<polygon class="st6" points="62.1,31.1 62,31 62,31.1 62,31.3 62,31.6 62,32 62.1,32 62.1,31.6 62.1,31.3 62.1,31.1 62.1,31.1 
	62,31 62.1,31.1 62.1,31.1 "/>
<polygon class="st6" points="59,32.1 59,32.1 59.2,32.1 59.4,32.1 59.6,32.1 59.9,32.1 60.1,32.1 60.3,32 60.6,32 60.8,31.9 
	61,31.8 61.2,31.7 61.4,31.6 61.5,31.5 61.7,31.4 61.9,31.3 62,31.2 62.1,31.1 62,31 61.9,31.1 61.8,31.2 61.6,31.3 61.5,31.5 
	61.3,31.5 61.1,31.6 60.9,31.7 60.7,31.8 60.5,31.9 60.3,31.9 60.1,32 59.9,32 59.6,32 59.4,32 59.2,32 59,32 59,32 59,32.1 
	59,32.1 "/>
<polygon class="st6" points="57,29.7 57,29.7 57,29.8 57.1,30 57.1,30.2 57.1,30.4 57.2,30.6 57.2,30.7 57.3,30.9 57.4,31.1 
	57.5,31.3 57.6,31.4 57.8,31.6 58,31.7 58.2,31.8 58.4,31.9 58.7,32 59,32.1 59,32 58.7,31.9 58.5,31.8 58.2,31.7 58,31.6 
	57.9,31.5 57.7,31.4 57.6,31.2 57.5,31.1 57.4,30.9 57.3,30.7 57.3,30.5 57.2,30.4 57.2,30.2 57.2,30 57.1,29.8 57.2,29.7 
	57.2,29.7 57,29.7 57,29.7 "/>
<polygon class="st6" points="59.9,26.6 59.9,26.6 59.6,26.6 59.4,26.7 59.1,26.8 58.8,26.9 58.6,27 58.4,27.2 58.1,27.4 57.9,27.6 
	57.7,27.8 57.6,28 57.4,28.2 57.3,28.5 57.2,28.8 57.1,29 57.1,29.3 57,29.7 57.2,29.7 57.2,29.3 57.2,29.1 57.3,28.8 57.4,28.5 
	57.5,28.3 57.6,28 57.8,27.8 58,27.6 58.2,27.4 58.4,27.3 58.6,27.1 58.9,27 59.1,26.9 59.4,26.8 59.6,26.7 59.9,26.7 59.9,26.7 
	59.9,26.6 59.9,26.6 "/>
<polygon class="st6" points="61.6,26.4 61.6,26.4 61.5,26.4 61.4,26.4 61.2,26.4 61.1,26.5 61,26.5 60.8,26.5 60.7,26.5 60.6,26.5 
	60.4,26.5 60.3,26.5 60.2,26.5 60.1,26.6 60,26.6 60,26.6 59.9,26.6 59.9,26.6 59.9,26.7 59.9,26.7 60,26.7 60,26.7 60.1,26.7 
	60.2,26.6 60.3,26.6 60.4,26.6 60.6,26.6 60.7,26.6 60.8,26.6 61,26.6 61.1,26.5 61.2,26.5 61.4,26.5 61.5,26.5 61.6,26.5 
	61.6,26.5 61.6,26.4 61.6,26.4 "/>
<polygon class="st6" points="62.6,26.5 62.7,26.5 62.7,26.5 62.6,26.5 62.5,26.5 62.3,26.4 62.1,26.4 61.9,26.4 61.8,26.4 
	61.6,26.4 61.6,26.5 61.8,26.5 61.9,26.5 62.1,26.5 62.3,26.5 62.5,26.5 62.6,26.6 62.7,26.6 62.7,26.6 62.7,26.5 62.7,26.6 
	62.7,26.6 62.7,26.5 62.6,26.5 62.6,26.5 "/>
<polygon class="st6" points="62.7,26 62.7,26 62.7,26.1 62.7,26.3 62.7,26.5 62.6,26.5 62.7,26.5 62.8,26.5 62.8,26.3 62.8,26.1 
	62.8,26 62.8,26 62.7,26 62.7,26 "/>
<polygon class="st6" points="61.8,25.2 61.8,25.2 62,25.2 62.1,25.3 62.3,25.3 62.4,25.4 62.5,25.5 62.6,25.7 62.7,25.8 62.7,26 
	62.8,26 62.8,25.8 62.7,25.6 62.6,25.5 62.5,25.4 62.3,25.2 62.2,25.2 62,25.1 61.8,25.1 61.8,25.1 61.8,25.2 61.8,25.2 "/>
<polygon class="st6" points="58.3,25.6 58.4,25.6 58.5,25.6 58.6,25.5 58.7,25.5 58.9,25.4 59.1,25.4 59.3,25.4 59.5,25.3 
	59.8,25.3 60,25.3 60.3,25.2 60.5,25.2 60.8,25.2 61.1,25.2 61.3,25.2 61.5,25.2 61.8,25.2 61.8,25.1 61.5,25.1 61.3,25.1 
	61.1,25.1 60.8,25.1 60.5,25.1 60.3,25.1 60,25.2 59.8,25.2 59.5,25.2 59.3,25.3 59.1,25.3 58.9,25.3 58.7,25.4 58.6,25.4 
	58.4,25.5 58.4,25.6 58.4,25.6 58.3,25.6 58.3,25.6 "/>
<polygon class="st6" points="58.9,23.6 58.9,23.7 58.3,25.6 58.4,25.6 59,23.7 59,23.7 58.9,23.6 58.9,23.6 58.9,23.7 58.9,23.6 
	58.9,23.6 "/>
<polygon class="st6" points="62.5,23.3 62.5,23.3 62.2,23.2 61.9,23.2 61.7,23.2 61.4,23.2 61.2,23.2 61,23.2 60.7,23.3 60.5,23.3 
	60.3,23.3 60.1,23.3 59.9,23.3 59.7,23.4 59.5,23.4 59.3,23.5 59.1,23.5 58.9,23.6 59,23.7 59.1,23.6 59.3,23.6 59.5,23.5 
	59.7,23.5 59.9,23.4 60.1,23.4 60.3,23.4 60.5,23.4 60.7,23.3 61,23.3 61.2,23.3 61.4,23.3 61.7,23.3 61.9,23.3 62.2,23.3 
	62.5,23.3 62.5,23.3 62.5,23.3 62.5,23.3 "/>
<polygon class="st6" points="65.2,26 65.2,26 65.3,25.6 65.3,25.3 65.2,25.1 65.1,24.8 65,24.5 64.8,24.3 64.6,24.1 64.4,23.9 
	64.2,23.8 64,23.6 63.7,23.5 63.5,23.4 63.2,23.4 63,23.3 62.7,23.3 62.5,23.3 62.5,23.3 62.7,23.4 62.9,23.4 63.2,23.5 63.4,23.5 
	63.7,23.6 63.9,23.7 64.2,23.9 64.4,24 64.6,24.2 64.8,24.4 64.9,24.6 65,24.8 65.1,25.1 65.2,25.3 65.2,25.6 65.1,25.9 65.1,25.9 
	65.2,26 65.2,26 "/>
<polygon class="st6" points="64.4,30.2 64.4,30.2 65.2,26 65.1,25.9 64.3,30.2 64.3,30.2 64.4,30.2 64.4,30.2 "/>
<polygon class="st4" points="62.4,28.1 62.4,28 62.4,28 62.3,28 62.2,28 62.1,27.9 62,27.9 61.9,27.9 61.8,27.9 61.7,28 61.5,28 
	61.4,28 61.3,28 61.2,28 61.1,28.1 61,28.1 60.9,28.1 60.8,28.1 60.8,28.1 60.7,28.1 60.6,28.2 60.5,28.2 60.4,28.3 60.3,28.3 
	60.2,28.4 60.1,28.5 60,28.6 59.9,28.7 59.8,28.8 59.7,28.9 59.7,29 59.6,29.1 59.6,29.3 59.6,29.5 59.6,29.7 59.7,29.9 59.8,30 
	59.9,30.1 60,30.1 60.2,30.2 60.3,30.2 60.6,30.2 60.8,30.1 61,30.1 61.2,30.1 61.3,30 61.5,29.9 61.6,29.8 61.8,29.7 61.9,29.7 
	62,29.5 62.1,29.5 62.1,29.3 62.2,29.3 62.2,29.2 62.3,29.1 62.3,29 62.3,28.7 62.4,28.5 62.4,28.3 62.4,28.1 62.4,28.1 "/>
<polygon class="st6" points="78.9,30.9 78.9,30.7 79,30.5 79.1,30.3 79.2,30.1 79.4,30 79.6,29.9 79.8,29.8 80,29.8 80.2,29.8 
	80.4,29.9 80.6,30 80.8,30.1 80.9,30.3 81,30.5 81.1,30.7 81.1,30.9 80.9,30.9 80.9,30.7 80.8,30.5 80.8,30.4 80.6,30.2 80.5,30.1 
	80.4,30.1 80.2,30 80,30 79.8,30 79.6,30.1 79.5,30.1 79.4,30.2 79.3,30.4 79.2,30.5 79.1,30.7 79.1,30.9 78.9,30.9 78.9,30.9 "/>
<polygon class="st6" points="79.6,30.9 79.6,30.4 80,30.4 80.1,30.4 80.2,30.4 80.3,30.4 80.4,30.5 80.4,30.5 80.4,30.6 80.4,30.6 
	80.4,30.7 80.4,30.7 80.4,30.8 80.4,30.8 80.4,30.9 80,30.9 80.1,30.9 80.1,30.8 80.2,30.8 80.2,30.8 80.3,30.8 80.3,30.8 
	80.3,30.7 80.3,30.7 80.3,30.6 80.3,30.6 80.2,30.6 80.2,30.6 80.2,30.6 80.1,30.5 80.1,30.5 80,30.5 79.8,30.5 79.8,30.9 
	79.6,30.9 79.6,30.9 "/>
<polygon class="st6" points="78.9,30.9 78.9,30.9 78.9,31.1 79,31.4 79.1,31.5 79.2,31.7 79.4,31.8 79.6,31.9 79.8,32 80,32 
	80.2,32 80.4,31.9 80.6,31.8 80.8,31.7 80.9,31.5 81,31.4 81.1,31.1 81.1,30.9 81.1,30.9 80.9,30.9 80.9,30.9 80.9,31.1 80.8,31.3 
	80.8,31.4 80.6,31.6 80.5,31.7 80.4,31.8 80.2,31.8 80,31.8 79.8,31.8 79.6,31.8 79.5,31.7 79.4,31.6 79.3,31.4 79.2,31.3 
	79.1,31.1 79.1,30.9 79.1,30.9 78.9,30.9 78.9,30.9 "/>
<polygon class="st6" points="79.6,30.9 79.6,31.3 79.8,31.3 79.8,30.9 80,30.9 80.2,31.3 80.4,31.3 80.2,30.9 80.2,30.9 80.3,30.9 
	80.3,30.9 80.4,30.9 80.4,30.9 80,30.9 80,30.9 79.8,30.9 79.8,30.9 79.6,30.9 79.6,30.9 "/>
<path class="st7" d="M78.9,30.9L78.9,30.9l0-0.2l0.1-0.2l0.1-0.2l0.1-0.2l0.2-0.1l0.2-0.1l0.2-0.1l0.2,0l0,0l0.2,0l0.2,0.1l0.2,0.1
	l0.2,0.1l0.1,0.2l0.1,0.2l0.1,0.2l0,0.2l0,0l0,0.2L81,31.4l-0.1,0.2l-0.1,0.2l-0.2,0.1l-0.2,0.1L80.2,32L80,32l0,0l-0.2,0l-0.2-0.1
	l-0.2-0.1l-0.2-0.1l-0.1-0.2L79,31.4l-0.1-0.2L78.9,30.9 M79.8,31.3h-0.2v-1H80l0,0l0.1,0l0.1,0l0.1,0l0.1,0l0,0l0,0l0,0.1l0,0.1
	l0,0l0,0.1l0,0.1l0,0l0,0l0,0l0,0l-0.1,0h-0.1l0.2,0.4h-0.2L80,30.9h-0.2V31.3 M80,30.9L80,30.9L80,30.9l0.1,0l0,0l0,0l0,0l0,0l0,0
	v-0.1l0,0l0,0l0,0l0,0l0,0l0,0l0,0h0h0h-0.2v0.3H80 M80,31.8L80,31.8l0.2,0l0.2-0.1l0.2-0.1l0.1-0.1l0.1-0.1l0.1-0.2l0-0.2l0-0.2
	l0,0l0-0.2l0-0.2l-0.1-0.2l-0.1-0.1l-0.1-0.1l-0.2-0.1L80.2,30L80,30l0,0l-0.2,0l-0.2,0.1l-0.2,0.1l-0.1,0.1l-0.1,0.1l-0.1,0.2
	l0,0.2l0,0.2l0,0l0,0.2l0,0.2l0.1,0.2l0.1,0.1l0.1,0.1l0.2,0.1l0.2,0.1L80,31.8"/>
<polygon class="st6" points="64.9,32 67.2,32 67.2,32 68,27.4 68,27.2 68.1,27.1 68.1,26.9 68.2,26.7 68.3,26.5 68.4,26.4 
	68.5,26.2 68.6,26 68.8,25.9 68.9,25.8 69.1,25.7 69.3,25.6 69.5,25.5 69.8,25.4 70.1,25.4 70.4,25.4 70.5,25.4 70.6,25.4 
	70.6,25.4 70.6,25.4 70.9,23.3 70.7,23.3 70.5,23.3 70.3,23.4 70.1,23.4 69.9,23.5 69.8,23.6 69.6,23.7 69.5,23.8 69.3,23.9 
	69.2,24 69,24.1 68.9,24.2 68.8,24.4 68.7,24.5 68.6,24.7 68.4,24.8 68.7,23.4 66.4,23.4 64.9,32 64.9,32 64.9,32 "/>
<polyline class="st7" points="64.9,32 67.2,32 67.2,32 68,27.4 68,27.4 68,27.2 68.1,27.1 68.1,26.9 68.2,26.7 68.3,26.5 68.4,26.4 
	68.5,26.2 68.6,26 68.8,25.9 68.9,25.8 69.1,25.7 69.3,25.6 69.5,25.5 69.8,25.4 70.1,25.4 70.4,25.4 70.4,25.4 70.5,25.4 
	70.6,25.4 70.6,25.4 70.6,25.4 70.9,23.3 70.9,23.3 70.7,23.3 70.5,23.3 70.3,23.4 70.1,23.4 69.9,23.5 69.8,23.6 69.6,23.7 
	69.5,23.8 69.3,23.9 69.2,24 69,24.1 68.9,24.2 68.8,24.4 68.7,24.5 68.6,24.7 68.4,24.8 68.7,23.4 66.4,23.4 64.9,32 64.9,32 "/>
<polygon class="st6" points="43.8,32 46,32 46.1,32 46.8,27.4 46.9,27.2 46.9,27.1 46.9,26.9 47,26.7 47.1,26.6 47.1,26.4 
	47.2,26.3 47.3,26.1 47.5,26 47.6,25.9 47.8,25.8 48,25.7 48.2,25.6 48.5,25.6 48.7,25.5 49,25.5 49.1,25.5 49.1,25.5 49.1,25.5 
	49.2,25.5 49.2,25.5 49.2,25.5 49.3,25.6 49.3,25.6 49.3,25.5 49.3,25.4 49.3,25.3 49.4,25.1 49.4,24.9 49.5,24.7 49.6,24.5 
	49.6,24.2 49.7,24.1 49.8,23.9 49.9,23.8 49.9,23.6 50,23.5 50.1,23.4 50.1,23.4 50.1,23.3 50.1,23.3 50.1,23.3 50,23.3 50,23.3 
	49.9,23.3 49.9,23.3 49.8,23.3 49.8,23.3 49.5,23.3 49.3,23.3 49.1,23.4 48.9,23.4 48.7,23.5 48.5,23.6 48.4,23.7 48.2,23.7 
	48.1,23.9 48,24 47.9,24.1 47.7,24.2 47.6,24.4 47.5,24.5 47.4,24.7 47.3,24.8 47.6,23.4 45.3,23.4 43.8,32 43.8,32 43.8,32 "/>
<polyline class="st7" points="43.8,32 46,32 46.1,32 46.8,27.4 46.8,27.4 46.9,27.2 46.9,27.1 46.9,26.9 47,26.7 47.1,26.6 
	47.1,26.4 47.2,26.3 47.3,26.1 47.5,26 47.6,25.9 47.8,25.8 48,25.7 48.2,25.6 48.5,25.6 48.7,25.5 49,25.5 49,25.5 49.1,25.5 
	49.1,25.5 49.1,25.5 49.2,25.5 49.2,25.5 49.2,25.5 49.3,25.6 49.3,25.6 49.3,25.6 49.3,25.5 49.3,25.4 49.3,25.3 49.4,25.1 
	49.4,24.9 49.5,24.7 49.6,24.5 49.6,24.2 49.6,24.2 49.7,24.1 49.8,23.9 49.9,23.8 49.9,23.6 50,23.5 50.1,23.4 50.1,23.4 
	50.1,23.3 50.1,23.3 50.1,23.3 50.1,23.3 50,23.3 50,23.3 49.9,23.3 49.9,23.3 49.8,23.3 49.8,23.3 49.8,23.3 49.5,23.3 49.3,23.3 
	49.1,23.4 48.9,23.4 48.7,23.5 48.5,23.6 48.4,23.7 48.2,23.7 48.1,23.9 48,24 47.9,24.1 47.7,24.2 47.6,24.4 47.5,24.5 47.4,24.7 
	47.3,24.8 47.6,23.4 45.3,23.4 43.8,32 43.8,32 "/>
<polygon class="st4" points="78.9,40.4 78.9,40.3 79,40.1 79.1,39.9 79.2,39.8 79.4,39.7 79.6,39.6 79.8,39.5 80,39.5 80.2,39.5 
	80.4,39.6 80.6,39.7 80.8,39.8 80.9,39.9 81,40.1 81.1,40.3 81.1,40.4 80.9,40.4 80.8,40.2 80.8,40.1 80.6,39.9 80.5,39.8 
	80.4,39.7 80.2,39.7 80,39.6 79.8,39.7 79.6,39.7 79.5,39.8 79.4,39.9 79.3,40.1 79.2,40.2 79.1,40.4 78.9,40.4 78.9,40.4 "/>
<polygon class="st4" points="79.6,40.4 79.6,40.1 80,40.1 80.1,40.1 80.2,40.1 80.3,40.1 80.4,40.2 80.4,40.2 80.4,40.2 80.4,40.3 
	80.4,40.4 80.3,40.4 80.3,40.3 80.3,40.3 80.3,40.3 80.2,40.2 80.2,40.2 80.2,40.2 80.1,40.2 80.1,40.2 80,40.2 79.8,40.2 
	79.8,40.4 79.6,40.4 79.6,40.4 "/>
<polygon class="st4" points="78.9,40.5 78.9,40.4 79.1,40.4 79.1,40.4 79.1,40.5 78.9,40.5 78.9,40.5 "/>
<polygon class="st4" points="79.6,40.5 79.6,40.4 79.8,40.4 79.8,40.5 80,40.5 80.1,40.5 80.1,40.5 80.2,40.5 80.2,40.5 80.3,40.5 
	80.3,40.4 80.3,40.4 80.3,40.4 80.4,40.4 80.4,40.4 80.4,40.4 80.4,40.5 80.4,40.5 80.4,40.5 79.6,40.5 79.6,40.5 "/>
<polygon class="st4" points="80.9,40.5 80.9,40.4 80.9,40.4 81.1,40.4 81.1,40.5 80.9,40.5 80.9,40.5 "/>
<polygon class="st4" points="78.9,40.5 78.9,40.6 78.9,40.8 79,41 79.1,41.2 79.2,41.4 79.4,41.5 79.6,41.6 79.8,41.7 80,41.7 
	80.2,41.7 80.4,41.6 80.6,41.5 80.8,41.4 80.9,41.2 81,41 81.1,40.8 81.1,40.6 81.1,40.5 80.9,40.5 80.9,40.6 80.9,40.8 80.8,40.9 
	80.8,41.1 80.6,41.2 80.5,41.3 80.4,41.4 80.2,41.5 80,41.5 79.8,41.5 79.6,41.4 79.5,41.3 79.4,41.2 79.3,41.1 79.2,40.9 
	79.1,40.8 79.1,40.6 79.1,40.5 78.9,40.5 78.9,40.5 "/>
<polygon class="st4" points="79.6,40.5 79.6,41 79.8,41 79.8,40.6 80,40.6 80.2,41 80.4,41 80.2,40.6 80.2,40.6 80.3,40.6 
	80.3,40.6 80.4,40.5 80.4,40.5 79.6,40.5 79.6,40.5 "/>
</svg>
