<?xml version="1.0" encoding="utf-8"?>
<!-- Generator: Adobe Illustrator 21.1.0, SVG Export Plug-In . SVG Version: 6.00 Build 0)  -->
<svg version="1.1" id="Слой_1" xmlns="http://www.w3.org/2000/svg" xmlns:xlink="http://www.w3.org/1999/xlink" x="0px" y="0px"
	 viewBox="0 0 86 52" style="enable-background:new 0 0 86 52;" xml:space="preserve">
<style type="text/css">
	.st0{fill:#4C70B3;}
	.st1{fill:#E59D4D;}
</style>
<g>
	<g>
		<polygon class="st0" points="37.4,39.2 30.6,39.2 34.8,12.8 41.7,12.8 		"/>
		<path class="st0" d="M24.8,12.8L18.3,31l-0.8-3.9l0,0l-2.3-11.8c0,0-0.3-2.4-3.3-2.4H1.1L1,13.3c0,0,3.3,0.7,7.2,3l6,22.9h7.1
			l10.9-26.3H24.8z"/>
		<path class="st0" d="M78.7,39.2H85l-5.5-26.3H74c-2.5,0-3.2,2-3.2,2L60.6,39.2h7.1l1.4-3.9h8.7L78.7,39.2z M71.2,29.9l3.6-9.9
			l2,9.9H71.2z"/>
		<path class="st0" d="M61.2,19.2l1-5.7c0,0-3-1.1-6.2-1.1c-3.4,0-11.5,1.5-11.5,8.7c0,6.8,9.5,6.9,9.5,10.5s-8.5,2.9-11.3,0.7
			l-1,5.9c0,0,3.1,1.5,7.7,1.5c4.7,0,11.7-2.4,11.7-9c0-6.8-9.6-7.5-9.6-10.5C51.5,17.2,58.2,17.6,61.2,19.2z"/>
	</g>
	<path class="st1" d="M17.5,27.1l-2.3-11.8c0,0-0.3-2.4-3.3-2.4H1.1L1,13.3c0,0,5.2,1.1,10.2,5.1C15.9,22.3,17.5,27.1,17.5,27.1z"/>
</g>
</svg>
