<?xml version="1.0" encoding="UTF-8"?><!DOCTYPE svg PUBLIC "-//W3C//DTD SVG 1.0//EN" "http://www.w3.org/TR/2001/REC-SVG-20010904/DTD/svg10.dtd"><svg xmlns="http://www.w3.org/2000/svg" xmlns:xlink="http://www.w3.org/1999/xlink" version="1.0" id="Layer_1" x="0px" y="0px" width="30px" height="30px" viewBox="0 0 100 100" xml:space="preserve"><path d="M74.219 27.155l-1.042 2.227S68.236 39.876 62.22 46.487c-1.934 2.139-2.916 2.783-3.984 2.783-.859 0-1.256-.716-1.256-2.643v-19.96H38.274v1.529c0 2.227 3.418 2.731 3.418 8.764v12.447c0 2.507-.137 3.477-1.321 3.477-3.145 0-10.612-10.777-14.805-23.014l-1.042-3.203h-12.22c-1.328 0-2.305.904-2.305 2.227 0 2.435 2.864 13.697 14.102 28.792 7.539 10.153 17.454 15.647 26.387 15.647 5.449 0 6.771-.904 6.771-3.196v-7.79c0-1.949.769-2.783 1.889-2.783 1.256 0 3.47.4 8.652 5.495.006 0 8.307 8.274 8.307 8.274h11.869c1.048 0 2.024-.484 2.024-2.223 0-2.299-3.001-6.4-7.61-11.267-1.882-2.503-4.955-5.218-5.932-6.472-1.393-1.458-.977-2.291 0-3.821 0 0 10.541-14.817 11.589-19.681.352-1.738-.417-2.715-2.233-2.715l-11.595.001z"/><metadata><rdf:RDF xmlns:rdf="http://www.w3.org/1999/02/22-rdf-syntax-ns#" xmlns:rdfs="http://www.w3.org/2000/01/rdf-schema#" xmlns:dc="http://purl.org/dc/elements/1.1/"><rdf:Description about="https://iconscout.com/legal#licenses" dc:title="vk" dc:description="vk" dc:publisher="Iconscout" dc:date="2018-06-08" dc:format="image/svg+xml" dc:language="en"><dc:creator><rdf:Bag><rdf:li>Edt.im Polshin</rdf:li></rdf:Bag></dc:creator></rdf:Description></rdf:RDF></metadata></svg>